<svg width="48" version="1.1" viewBox="0.00 0.00 210.00 155.00" xmlns="http://www.w3.org/2000/svg"><defs><linearGradient id="myGradient" gradientTransform="rotate(90)"><stop offset="0.05" stop-color="#ff77f3"></stop><stop offset="0.95" stop-color="#7a19ee"></stop></linearGradient></defs><g stroke-width="0.00" fill="none" stroke-linecap="butt" transform="matrix(1, 0, 0, 1, -181.361694, -125.558098)"><path stroke="#8e8d92" vector-effect="non-scaling-stroke" d="   M 410.6204 100.3997   A 3.44 3.12 -8.7 0 0 406.7481 97.8359   A 3.44 3.12 -8.7 0 0 403.8196 101.4403   A 3.44 3.12 -8.7 0 0 407.6919 104.0041   A 3.44 3.12 -8.7 0 0 410.6204 100.3997"></path><path stroke="#8e8d92" vector-effect="non-scaling-stroke" d="   M 393.0471 114.2123   A 5.13 4.86 81.4 0 0 397.0854 108.4133   A 5.13 4.86 81.4 0 0 391.5129 104.0677   A 5.13 4.86 81.4 0 0 387.4746 109.8667   A 5.13 4.86 81.4 0 0 393.0471 114.2123"></path><path stroke="#8e8d92" vector-effect="non-scaling-stroke" d="   M 413.08 118.73   A 5.26 5.26 0.0 0 0 407.82 113.47   A 5.26 5.26 0.0 0 0 402.56 118.73   A 5.26 5.26 0.0 0 0 407.82 123.99   A 5.26 5.26 0.0 0 0 413.08 118.73"></path><path stroke="#8e8d92" vector-effect="non-scaling-stroke" d="   M 349.68 252.38   C 350.55 254.81 350.49 258.09 351.39 260.16   C 353.40 264.76 358.36 265.51 362.91 265.53   Q 363.45 265.53 363.61 266.05   C 364.86 270.31 365.89 275.74 368.42 279.41   A 0.76 0.76 0.0 0 0 369.76 279.24   L 374.20 266.86   A 2.30 2.30 0.0 0 1 376.50 265.34   C 388.02 266.00 387.53 250.51 386.11 242.76   C 384.46 233.79 373.35 235.04 366.66 235.26   Q 363.05 235.37 365.01 232.34   C 374.58 217.57 376.37 197.89 374.77 180.46   C 371.20 141.52 340.99 131.64 307.25 129.54   Q 272.69 127.39 240.46 131.03   C 211.46 134.31 187.69 147.40 184.26 178.99   C 181.95 200.28 185.47 223.70 198.19 241.10   C 222.73 274.66 263.60 274.89 301.20 271.92   C 315.09 270.82 325.37 267.72 336.32 260.26   Q 342.05 256.36 348.05 251.89   Q 349.20 251.04 349.68 252.38"></path><path stroke="#8e8d92" vector-effect="non-scaling-stroke" d="   M 268.23 198.76   A 28.97 28.97 0.0 0 0 239.26 169.79   A 28.97 28.97 0.0 0 0 210.29 198.76   A 28.97 28.97 0.0 0 0 239.26 227.73   A 28.97 28.97 0.0 0 0 268.23 198.76"></path><path stroke="#8e8d92" vector-effect="non-scaling-stroke" d="   M 347.7815 205.6294   A 29.05 28.94 13.8 0 0 326.4732 170.5954   A 29.05 28.94 13.8 0 0 291.3585 191.7706   A 29.05 28.94 13.8 0 0 312.6668 226.8046   A 29.05 28.94 13.8 0 0 347.7815 205.6294"></path><path stroke="#8e8d92" vector-effect="non-scaling-stroke" d="   M 235.89 189.66   A 8.05 8.05 0.0 0 0 227.84 181.61   A 8.05 8.05 0.0 0 0 219.79 189.66   A 8.05 8.05 0.0 0 0 227.84 197.71   A 8.05 8.05 0.0 0 0 235.89 189.66"></path><path stroke="#8e8d92" vector-effect="non-scaling-stroke" d="   M 316.40 189.61   A 8.04 8.04 0.0 0 0 308.36 181.57   A 8.04 8.04 0.0 0 0 300.32 189.61   A 8.04 8.04 0.0 0 0 308.36 197.65   A 8.04 8.04 0.0 0 0 316.40 189.61"></path></g><ellipse fill="#fff" transform="matrix(0.988494, -0.151261, 0.151261, 0.988494, 199.084671, 6.524345)" rx="3.44" ry="3.12"></ellipse><ellipse fill="#fff" transform="matrix(0.149535, 0.988756, -0.988756, 0.149535, 185.084656, 11.200905)" rx="5.13" ry="4.86"></ellipse><circle fill="#fff" cx="198.839" cy="19.799" r="5.26"></circle><path fill="url('#myGradient')" d="M 168.318 126.822 C 167.998 125.929 167.455 125.765 166.688 126.332 C 162.688 129.312 158.778 132.102 154.958 134.702 C 144.008 142.162 133.728 145.262 119.838 146.362 C 82.238 149.332 41.368 149.102 16.828 115.542 C 4.108 98.142 0.588 74.722 2.898 53.432 C 6.328 21.842 30.098 8.752 59.098 5.472 C 80.585 3.045 102.848 2.549 125.888 3.982 C 159.628 6.082 189.838 15.962 193.408 54.902 C 195.008 72.332 193.218 92.012 183.648 106.782 C 182.342 108.802 182.892 109.775 185.298 109.702 C 191.988 109.482 203.098 108.232 204.748 117.202 C 206.168 124.952 206.658 140.442 195.138 139.782 C 194.119 139.722 193.183 140.341 192.838 141.302 L 188.398 153.682 C 188.198 154.231 187.477 154.358 187.102 153.909 C 187.086 153.891 187.072 153.872 187.058 153.852 C 184.528 150.182 183.498 144.752 182.248 140.492 C 182.142 140.145 181.908 139.972 181.548 139.972 C 176.998 139.952 172.038 139.202 170.028 134.602 C 169.128 132.532 169.188 129.252 168.318 126.822 Z M 86.868 73.202 C 86.868 57.202 73.898 44.232 57.898 44.232 C 41.899 44.232 28.928 57.202 28.928 73.202 C 28.928 89.202 41.899 102.172 57.898 102.172 C 73.898 102.172 86.868 89.202 86.868 73.202 Z M 166.42 80.071 C 170.232 64.55 160.692 48.864 145.112 45.037 C 129.531 41.21 113.809 50.691 109.997 66.213 C 106.184 81.734 115.724 97.42 131.305 101.247 C 146.886 105.074 162.607 95.593 166.42 80.071 L 166.42 80.071 Z"></path><path fill="#1d1a24" d="M 86.868 73.202 C 86.868 89.202 73.898 102.172 57.898 102.172 C 41.899 102.172 28.928 89.202 28.928 73.202 C 28.928 57.202 41.899 44.232 57.898 44.232 C 73.898 44.232 86.868 57.202 86.868 73.202 Z M 54.528 64.102 C 54.528 59.656 50.924 56.052 46.478 56.052 C 42.032 56.052 38.428 59.656 38.428 64.102 C 38.428 68.548 42.032 72.152 46.478 72.152 C 50.924 72.152 54.528 68.548 54.528 64.102 Z"></path><path xmlns="http://www.w3.org/2000/svg" fill="#1d1a24" d="M 166.42 80.071 C 162.607 95.593 146.886 105.074 131.305 101.247 C 115.724 97.42 106.184 81.734 109.997 66.213 C 113.809 50.691 129.531 41.21 145.112 45.037 C 160.692 48.864 170.232 64.55 166.42 80.071 L 166.42 80.071 Z M 135.038 64.052 C 135.038 59.612 131.439 56.012 126.998 56.012 C 122.558 56.012 118.958 59.612 118.958 64.052 C 118.958 68.492 122.558 72.092 126.998 72.092 C 131.439 72.092 135.038 68.492 135.038 64.052 Z"></path><path xmlns="http://www.w3.org/2000/svg" d="M 83.638 123.342 C 77.538 122.242 76.038 121.342 76.938 119.042 C 77.438 117.742 78.438 117.542 81.838 118.142 C 84.238 118.642 93.238 118.842 101.938 118.842 C 114.538 118.742 117.638 118.942 117.638 120.042 C 117.638 120.742 116.638 121.842 115.538 122.542 C 112.638 124.042 90.638 124.642 83.638 123.342 L 83.638 123.342 Z"></path><circle fill="#ffffff" cx="46.478" cy="64.102" r="8.05"></circle><circle fill="#ffffff" cx="126.998" cy="64.052" r="8.04"></circle></svg>